<svg width="61" height="52" viewBox="0 0 61 52" fill="none" xmlns="http://www.w3.org/2000/svg">
<path id="fa-briefcase" d="M21.9286 9.14284V4.85713H39.0714V9.14284H21.9286ZM60.5 30.5714H38V35.9286C38 37.1004 37.029 38.0714 35.8571 38.0714H25.1429C23.971 38.0714 23 37.1004 23 35.9286V30.5714H0.5V46.6428C0.5 49.5893 2.91071 52 5.85714 52H55.1429C58.0893 52 60.5 49.5893 60.5 46.6428V30.5714ZM34.7857 30.5714H26.2143V34.8571H34.7857V30.5714ZM60.5 14.5C60.5 11.5536 58.0893 9.14284 55.1429 9.14284H43.3571V3.7857C43.3571 2.01115 41.9174 0.571411 40.1429 0.571411H20.8571C19.0826 0.571411 17.6429 2.01115 17.6429 3.7857V9.14284H5.85714C2.91071 9.14284 0.5 11.5536 0.5 14.5V27.3571H60.5V14.5Z" fill="#E93A7D"/>
</svg>
