<svg width="21" height="14" viewBox="0 0 21 14" fill="none" xmlns="http://www.w3.org/2000/svg">
<path id="fa-behance" d="M18.5625 0.976597V2.22213H13.4297V0.976597H18.5625ZM16.0313 5.25562C17.2969 5.25562 17.9297 5.99892 18.0402 7.21432H13.942C14.0223 6.00896 14.8259 5.25562 16.0313 5.25562ZM16.192 11.1317C14.7154 11.1317 13.942 10.2679 13.942 8.80137H20.5513C20.5614 8.6507 20.5714 8.48999 20.5714 8.32928C20.5714 5.61722 18.9844 3.35718 16.1116 3.35718C13.3192 3.35718 11.4208 5.45651 11.4208 8.20874C11.4208 11.0614 13.2188 13.0201 16.1116 13.0201C18.3013 13.0201 19.7176 12.0357 20.4007 9.93642H18.1808C17.9397 10.7199 16.9554 11.1317 16.192 11.1317ZM2.78237 10.6295V7.14401H5.81585C7.0413 7.14401 7.81473 7.65629 7.81473 8.95204C7.81473 10.2277 6.89063 10.6295 5.75558 10.6295H2.78237ZM2.78237 5.23553V2.2824H5.39397C6.39844 2.2824 7.30246 2.56365 7.30246 3.72883C7.30246 4.80361 6.59933 5.23553 5.60491 5.23553H2.78237ZM0 0.122803V12.7791H6.13728C8.4375 12.7791 10.5971 11.6741 10.5971 9.10271C10.5971 7.51566 9.84375 6.34044 8.28683 5.89847C9.42188 5.35606 10.0145 4.5324 10.0145 3.25673C10.0145 0.735527 8.13616 0.122803 5.96652 0.122803H0Z" fill="white"/>
</svg>
