<svg width="41" height="32" viewBox="0 0 41 32" fill="none" xmlns="http://www.w3.org/2000/svg">
<path id="fa-code" d="M12.8465 25.9419C13.1367 25.6518 13.1367 25.2053 12.8465 24.9151L4.07421 16.1428L12.8465 7.3705C13.1367 7.08032 13.1367 6.63389 12.8465 6.34371L11.7305 5.22764C11.4403 4.93746 10.9939 4.93746 10.7037 5.22764L0.301893 15.6294C0.0117144 15.9196 0.0117144 16.366 0.301893 16.6562L10.7037 27.058C10.9939 27.3482 11.4403 27.3482 11.7305 27.058L12.8465 25.9419ZM26.0385 2.12496C26.1501 1.7455 25.9269 1.34371 25.5474 1.23211L24.1635 0.852641C23.8064 0.741035 23.4046 0.96425 23.293 1.34371L14.9671 30.1607C14.8555 30.5401 15.0787 30.9419 15.4581 31.0535L16.8421 31.433C17.1992 31.5446 17.601 31.3214 17.7126 30.9419L26.0385 2.12496ZM40.7037 16.6562C40.9939 16.366 40.9939 15.9196 40.7037 15.6294L30.3019 5.22764C30.0117 4.93746 29.5653 4.93746 29.2751 5.22764L28.159 6.34371C27.8689 6.63389 27.8689 7.08032 28.159 7.3705L36.9314 16.1428L28.159 24.9151C27.8689 25.2053 27.8689 25.6518 28.159 25.9419L29.2751 27.058C29.5653 27.3482 30.0117 27.3482 30.3019 27.058L40.7037 16.6562Z" fill="#482BE7"/>
</svg>
