<svg width="51" height="51" viewBox="0 0 51 51" fill="none" xmlns="http://www.w3.org/2000/svg">
<path id="fa-compress" d="M25.4916 27.7143C25.4916 26.5424 24.5207 25.5714 23.3488 25.5714H8.34878C7.1769 25.5714 6.20592 26.5424 6.20592 27.7143C6.20592 28.2835 6.4403 28.8192 6.84208 29.221L11.6635 34.0424L0.547437 45.1585C0.346545 45.3594 0.212616 45.6607 0.212616 45.9286C0.212616 46.1964 0.346545 46.4977 0.547437 46.6986L4.3644 50.5156C4.56529 50.7165 4.86663 50.8504 5.13449 50.8504C5.40235 50.8504 5.70369 50.7165 5.90458 50.5156L17.0207 39.3995L21.8421 44.221C22.2439 44.6227 22.7796 44.8571 23.3488 44.8571C24.5207 44.8571 25.4916 43.8861 25.4916 42.7143V27.7143ZM50.7707 5.21426C50.7707 4.94641 50.6367 4.64507 50.4358 4.44417L46.6189 0.627211C46.418 0.426317 46.1166 0.292389 45.8488 0.292389C45.5809 0.292389 45.2796 0.426317 45.0787 0.627211L33.9626 11.7433L29.1412 6.92185C28.7394 6.52007 28.2037 6.28569 27.6345 6.28569C26.4626 6.28569 25.4916 7.25667 25.4916 8.42855V23.4286C25.4916 24.6004 26.4626 25.5714 27.6345 25.5714H42.6345C43.8064 25.5714 44.7774 24.6004 44.7774 23.4286C44.7774 22.8594 44.543 22.3236 44.1412 21.9219L39.3198 17.1004L50.4358 5.98435C50.6367 5.78346 50.7707 5.48212 50.7707 5.21426Z" fill="#E93A7D"/>
</svg>
