<svg width="65" height="57" viewBox="0 0 65 57" fill="none" xmlns="http://www.w3.org/2000/svg">
<path id="fa-desktop" d="M60.3613 33.7857C60.3613 34.3549 59.8591 34.8571 59.2899 34.8571H5.71847C5.14927 34.8571 4.64704 34.3549 4.64704 33.7857V5.92856C4.64704 5.35936 5.14927 4.85713 5.71847 4.85713H59.2899C59.8591 4.85713 60.3613 5.35936 60.3613 5.92856V33.7857ZM64.647 5.92856C64.647 2.98213 62.2363 0.571411 59.2899 0.571411H5.71847C2.77204 0.571411 0.361328 2.98213 0.361328 5.92856V42.3571C0.361328 45.3036 2.77204 47.7143 5.71847 47.7143H23.9328C23.9328 50.6272 21.7899 52.904 21.7899 54.1428C21.7899 55.3147 22.7609 56.2857 23.9328 56.2857H41.0756C42.2475 56.2857 43.2185 55.3147 43.2185 54.1428C43.2185 52.971 41.0756 50.5603 41.0756 47.7143H59.2899C62.2363 47.7143 64.647 45.3036 64.647 42.3571V5.92856Z" fill="#E93A7D"/>
</svg>
