<svg width="16" height="17" viewBox="0 0 16 17" fill="none" xmlns="http://www.w3.org/2000/svg">
<path id="fa-facebook-square" d="M12.5357 0.857178C13.3326 0.857178 14.0123 1.14178 14.5748 1.71097C15.144 2.27347 15.4286 2.95316 15.4286 3.75004V13.3929C15.4286 14.1898 15.144 14.8695 14.5748 15.432C14.0123 16.0012 13.3326 16.2858 12.5357 16.2858H10.6473V10.3092H12.6462L12.9475 7.97883H10.6473V6.49222C10.6473 6.11722 10.7243 5.83597 10.8783 5.64847C11.0391 5.46097 11.3471 5.36722 11.8025 5.36722L13.0279 5.35718V3.27794C12.606 3.21767 12.01 3.18754 11.24 3.18754C10.3292 3.18754 9.59933 3.45539 9.05022 3.99111C8.50781 4.52682 8.23661 5.28352 8.23661 6.2612V7.97883H6.22768V10.3092H8.23661V16.2858H2.89286C2.09598 16.2858 1.41295 16.0012 0.84375 15.432C0.28125 14.8695 0 14.1898 0 13.3929V3.75004C0 2.95316 0.28125 2.27347 0.84375 1.71097C1.41295 1.14178 2.09598 0.857178 2.89286 0.857178H12.5357Z" fill="white"/>
</svg>
