<svg width="24" height="15" viewBox="0 0 24 15" fill="none" xmlns="http://www.w3.org/2000/svg">
<path id="fa-google-plus" d="M14.4342 7.74222C14.4342 9.13508 14.1429 10.3773 13.5603 11.4688C12.9777 12.5536 12.1473 13.4007 11.0692 14.0101C9.99107 14.6262 8.75558 14.9342 7.36272 14.9342C6.36496 14.9342 5.41071 14.74 4.5 14.3516C3.58929 13.9632 2.8058 13.4409 2.14955 12.7846C1.4933 12.1284 0.970982 11.3449 0.582589 10.4342C0.194196 9.52347 0 8.56923 0 7.57146C0 6.5737 0.194196 5.61945 0.582589 4.70874C0.970982 3.79803 1.4933 3.01454 2.14955 2.35829C2.8058 1.70204 3.58929 1.17972 4.5 0.79133C5.41071 0.402937 6.36496 0.20874 7.36272 0.20874C9.2779 0.20874 10.9219 0.851597 12.2946 2.13731L10.2958 4.05584C9.51228 3.29914 8.5346 2.92079 7.36272 2.92079C6.53906 2.92079 5.77567 3.12838 5.07255 3.54356C4.37612 3.95874 3.82366 4.52459 3.41518 5.24111C3.0067 5.95093 2.80246 6.72771 2.80246 7.57146C2.80246 8.41521 3.0067 9.19535 3.41518 9.91187C3.82366 10.6217 4.37612 11.1842 5.07255 11.5994C5.77567 12.0145 6.53906 12.2221 7.36272 12.2221C7.91853 12.2221 8.42746 12.1451 8.88951 11.9911C9.35826 11.8371 9.7433 11.6462 10.0446 11.4186C10.346 11.1842 10.6071 10.9197 10.8281 10.625C11.0558 10.3304 11.2199 10.0525 11.3203 9.79133C11.4275 9.53017 11.5011 9.2824 11.5413 9.04803H7.36272V6.51678H14.3136C14.394 6.93865 14.4342 7.34713 14.4342 7.74222ZM23.1429 6.51678V8.62615H21.0435V10.7255H18.9342V8.62615H16.8348V6.51678H18.9342V4.41745H21.0435V6.51678H23.1429Z" fill="white"/>
</svg>
