<svg width="16" height="17" viewBox="0 0 16 17" fill="none" xmlns="http://www.w3.org/2000/svg">
<path id="fa-instagram" d="M10.2856 8.57148C10.2856 9.98778 9.13048 11.1429 7.71418 11.1429C6.29789 11.1429 5.14275 9.98778 5.14275 8.57148C5.14275 7.15519 6.29789 6.00005 7.71418 6.00005C9.13048 6.00005 10.2856 7.15519 10.2856 8.57148ZM11.6718 8.57148C11.6718 6.38175 9.90391 4.61389 7.71418 4.61389C5.52445 4.61389 3.75659 6.38175 3.75659 8.57148C3.75659 10.7612 5.52445 12.5291 7.71418 12.5291C9.90391 12.5291 11.6718 10.7612 11.6718 8.57148ZM12.7566 4.45318C12.7566 3.9409 12.3448 3.52907 11.8325 3.52907C11.3202 3.52907 10.9084 3.9409 10.9084 4.45318C10.9084 4.96545 11.3202 5.37729 11.8325 5.37729C12.3448 5.37729 12.7566 4.96545 12.7566 4.45318ZM7.71418 2.24336C8.83918 2.24336 11.2499 2.15295 12.2644 2.55474C12.616 2.69536 12.8771 2.86612 13.1483 3.13733C13.4195 3.40853 13.5903 3.6697 13.7309 4.02126C14.1327 5.03577 14.0423 7.44648 14.0423 8.57148C14.0423 9.69648 14.1327 12.1072 13.7309 13.1217C13.5903 13.4733 13.4195 13.7344 13.1483 14.0056C12.8771 14.2768 12.616 14.4476 12.2644 14.5882C11.2499 14.99 8.83918 14.8996 7.71418 14.8996C6.58918 14.8996 4.17847 14.99 3.16396 14.5882C2.8124 14.4476 2.55123 14.2768 2.28003 14.0056C2.00882 13.7344 1.83807 13.4733 1.69744 13.1217C1.29565 12.1072 1.38606 9.69648 1.38606 8.57148C1.38606 7.44648 1.29565 5.03577 1.69744 4.02126C1.83807 3.6697 2.00882 3.40853 2.28003 3.13733C2.55123 2.86612 2.8124 2.69536 3.16396 2.55474C4.17847 2.15295 6.58918 2.24336 7.71418 2.24336ZM15.4285 8.57148C15.4285 7.50675 15.4385 6.45206 15.3782 5.38733C15.318 4.15184 15.0367 3.05697 14.1327 2.15295C13.2287 1.24894 12.1338 0.967686 10.8983 0.907419C9.8336 0.847151 8.77891 0.857195 7.71418 0.857195C6.64945 0.857195 5.59476 0.847151 4.53003 0.907419C3.29454 0.967686 2.19967 1.24894 1.29565 2.15295C0.391636 3.05697 0.110386 4.15184 0.0501186 5.38733C-0.0101493 6.45206 -0.000104632 7.50675 -0.000104632 8.57148C-0.000104632 9.63621 -0.0101493 10.6909 0.0501186 11.7556C0.110386 12.9911 0.391636 14.086 1.29565 14.99C2.19967 15.894 3.29454 16.1753 4.53003 16.2355C5.59476 16.2958 6.64945 16.2858 7.71418 16.2858C8.77891 16.2858 9.8336 16.2958 10.8983 16.2355C12.1338 16.1753 13.2287 15.894 14.1327 14.99C15.0367 14.086 15.318 12.9911 15.3782 11.7556C15.4385 10.6909 15.4285 9.63621 15.4285 8.57148Z" fill="white"/>
</svg>
