<svg width="130" height="130" viewBox="0 0 130 130" fill="none" xmlns="http://www.w3.org/2000/svg">
<g id="Group 5">
<g id="Illustration">
<path id="Placeholder" fill-rule="evenodd" clip-rule="evenodd" d="M65 130C100.899 130 130 100.899 130 65C130 29.1015 100.899 0 65 0C29.1015 0 0 29.1015 0 65C0 100.899 29.1015 130 65 130Z" fill="#EBEAED"/>
<path id="Placeholder_2" fill-rule="evenodd" clip-rule="evenodd" d="M65 130C100.899 130 130 100.899 130 65C130 29.1015 100.899 0 65 0C29.1015 0 0 29.1015 0 65C0 100.899 29.1015 130 65 130Z" fill="#EBEAED"/>
<path id="Vector" d="M58.7556 52.4355C59.24 53.5772 58.6864 54.8574 57.5447 55.3417C53.6697 56.8987 50.5558 60.0125 48.9989 63.8875C48.6183 64.7524 47.8225 65.2714 46.923 65.2714C46.6462 65.2714 46.3694 65.2022 46.0926 65.0984C44.9509 64.6486 44.4319 63.3685 44.8817 62.2268C46.8884 57.2446 50.9018 53.2312 55.8839 51.2245C57.0257 50.7748 58.3058 51.2937 58.7556 52.4355ZM91.3471 40.1185L82.9397 48.5605L80.5871 46.2078C79.7221 45.3428 78.3036 45.3428 77.4386 46.2078L75.2243 48.4221C71.7299 46.4846 67.6819 45.3428 63.3572 45.3428C49.8985 45.3428 39 56.2413 39 69.7C39 83.1587 49.8985 94.0571 63.3572 94.0571C76.8159 94.0571 87.7143 83.1587 87.7143 69.7C87.7143 65.3752 86.5726 61.3272 84.6351 57.8328L86.8493 55.6185C87.7143 54.7536 87.7143 53.335 86.8493 52.4701L84.4967 50.1174L92.9386 41.71L91.3471 40.1185ZM91.6239 38.181C92.0737 37.7658 92.0737 37.0393 91.6239 36.6241L88.5101 33.4757C88.0603 33.0605 87.3683 33.0605 86.9185 33.4757C86.5034 33.9254 86.5034 34.6174 86.9185 35.0672L90.067 38.181C90.2746 38.3886 90.5513 38.527 90.8627 38.527C91.1395 38.527 91.4163 38.3886 91.6239 38.181ZM99.5815 46.1386C99.9966 45.6888 99.9966 44.9969 99.5815 44.5471L96.433 41.4332C96.0179 40.9835 95.2913 40.9835 94.8761 41.4332C94.4263 41.8484 94.4263 42.575 94.8761 42.9902L97.99 46.1386C98.2322 46.3462 98.5089 46.45 98.7857 46.45C99.0625 46.45 99.3393 46.3462 99.5815 46.1386ZM101 39.8071C101 39.1844 100.516 38.7 99.8929 38.7H96.5714C95.9487 38.7 95.4643 39.1844 95.4643 39.8071C95.4643 40.4299 95.9487 40.9143 96.5714 40.9143H99.8929C100.516 40.9143 101 40.4299 101 39.8071ZM94.3572 33.1643C94.3572 32.5415 93.8728 32.0571 93.25 32.0571C92.6272 32.0571 92.1429 32.5415 92.1429 33.1643V36.4857C92.1429 37.1085 92.6272 37.5928 93.25 37.5928C93.8728 37.5928 94.3572 37.1085 94.3572 36.4857V33.1643ZM99.5815 35.0672C99.9966 34.6174 99.9966 33.9254 99.5815 33.4757C99.1317 33.0605 98.4398 33.0605 97.99 33.4757L94.8761 36.6241C94.4263 37.0393 94.4263 37.7658 94.8761 38.181C95.0837 38.3886 95.3605 38.527 95.6719 38.527C95.9487 38.527 96.2254 38.3886 96.433 38.181L99.5815 35.0672Z" fill="#151439" fill-opacity="0.4"/>
</g>
</g>
</svg>
