<svg width="130" height="130" viewBox="0 0 130 130" fill="none" xmlns="http://www.w3.org/2000/svg">
<g id="Group 4">
<g id="Group 1">
<g id="Illustration">
<path id="Placeholder" fill-rule="evenodd" clip-rule="evenodd" d="M65 130C100.899 130 130 100.899 130 65C130 29.1015 100.899 0 65 0C29.1015 0 0 29.1015 0 65C0 100.899 29.1015 130 65 130Z" fill="#EBEAED"/>
<path id="Vector" d="M88.9199 36.0571H44.6342C43.4233 36.0571 42.4199 37.0605 42.4199 38.2714V95.8428C42.4199 97.0538 43.4233 98.0571 44.6342 98.0571H88.9199C90.1309 98.0571 91.1342 97.0538 91.1342 95.8428V38.2714C91.1342 37.0605 90.1309 36.0571 88.9199 36.0571ZM60.1342 46.0214C60.1342 45.3987 60.6186 44.9143 61.2414 44.9143H63.4556C64.0784 44.9143 64.5628 45.3987 64.5628 46.0214V48.2357C64.5628 48.8585 64.0784 49.3428 63.4556 49.3428H61.2414C60.6186 49.3428 60.1342 48.8585 60.1342 48.2357V46.0214ZM60.1342 54.8786C60.1342 54.2558 60.6186 53.7714 61.2414 53.7714H63.4556C64.0784 53.7714 64.5628 54.2558 64.5628 54.8786V57.0928C64.5628 57.7156 64.0784 58.2 63.4556 58.2H61.2414C60.6186 58.2 60.1342 57.7156 60.1342 57.0928V54.8786ZM60.1342 63.7357C60.1342 63.1129 60.6186 62.6286 61.2414 62.6286H63.4556C64.0784 62.6286 64.5628 63.1129 64.5628 63.7357V65.95C64.5628 66.5728 64.0784 67.0571 63.4556 67.0571H61.2414C60.6186 67.0571 60.1342 66.5728 60.1342 65.95V63.7357ZM60.1342 72.5928C60.1342 71.9701 60.6186 71.4857 61.2414 71.4857H63.4556C64.0784 71.4857 64.5628 71.9701 64.5628 72.5928V74.8071C64.5628 75.4299 64.0784 75.9143 63.4556 75.9143H61.2414C60.6186 75.9143 60.1342 75.4299 60.1342 74.8071V72.5928ZM55.7056 83.6643C55.7056 84.287 55.2213 84.7714 54.5985 84.7714H52.3842C51.7614 84.7714 51.2771 84.287 51.2771 83.6643V81.45C51.2771 80.8272 51.7614 80.3428 52.3842 80.3428H54.5985C55.2213 80.3428 55.7056 80.8272 55.7056 81.45V83.6643ZM55.7056 74.8071C55.7056 75.4299 55.2213 75.9143 54.5985 75.9143H52.3842C51.7614 75.9143 51.2771 75.4299 51.2771 74.8071V72.5928C51.2771 71.9701 51.7614 71.4857 52.3842 71.4857H54.5985C55.2213 71.4857 55.7056 71.9701 55.7056 72.5928V74.8071ZM55.7056 65.95C55.7056 66.5728 55.2213 67.0571 54.5985 67.0571H52.3842C51.7614 67.0571 51.2771 66.5728 51.2771 65.95V63.7357C51.2771 63.1129 51.7614 62.6286 52.3842 62.6286H54.5985C55.2213 62.6286 55.7056 63.1129 55.7056 63.7357V65.95ZM55.7056 57.0928C55.7056 57.7156 55.2213 58.2 54.5985 58.2H52.3842C51.7614 58.2 51.2771 57.7156 51.2771 57.0928V54.8786C51.2771 54.2558 51.7614 53.7714 52.3842 53.7714H54.5985C55.2213 53.7714 55.7056 54.2558 55.7056 54.8786V57.0928ZM55.7056 48.2357C55.7056 48.8585 55.2213 49.3428 54.5985 49.3428H52.3842C51.7614 49.3428 51.2771 48.8585 51.2771 48.2357V46.0214C51.2771 45.3987 51.7614 44.9143 52.3842 44.9143H54.5985C55.2213 44.9143 55.7056 45.3987 55.7056 46.0214V48.2357ZM73.4199 92.5214C73.4199 93.1442 72.9356 93.6286 72.3128 93.6286H61.2414C60.6186 93.6286 60.1342 93.1442 60.1342 92.5214V85.8786C60.1342 85.2558 60.6186 84.7714 61.2414 84.7714H72.3128C72.9356 84.7714 73.4199 85.2558 73.4199 85.8786V92.5214ZM73.4199 74.8071C73.4199 75.4299 72.9356 75.9143 72.3128 75.9143H70.0985C69.4757 75.9143 68.9914 75.4299 68.9914 74.8071V72.5928C68.9914 71.9701 69.4757 71.4857 70.0985 71.4857H72.3128C72.9356 71.4857 73.4199 71.9701 73.4199 72.5928V74.8071ZM73.4199 65.95C73.4199 66.5728 72.9356 67.0571 72.3128 67.0571H70.0985C69.4757 67.0571 68.9914 66.5728 68.9914 65.95V63.7357C68.9914 63.1129 69.4757 62.6286 70.0985 62.6286H72.3128C72.9356 62.6286 73.4199 63.1129 73.4199 63.7357V65.95ZM73.4199 57.0928C73.4199 57.7156 72.9356 58.2 72.3128 58.2H70.0985C69.4757 58.2 68.9914 57.7156 68.9914 57.0928V54.8786C68.9914 54.2558 69.4757 53.7714 70.0985 53.7714H72.3128C72.9356 53.7714 73.4199 54.2558 73.4199 54.8786V57.0928ZM73.4199 48.2357C73.4199 48.8585 72.9356 49.3428 72.3128 49.3428H70.0985C69.4757 49.3428 68.9914 48.8585 68.9914 48.2357V46.0214C68.9914 45.3987 69.4757 44.9143 70.0985 44.9143H72.3128C72.9356 44.9143 73.4199 45.3987 73.4199 46.0214V48.2357ZM82.2771 83.6643C82.2771 84.287 81.7927 84.7714 81.1699 84.7714H78.9556C78.3329 84.7714 77.8485 84.287 77.8485 83.6643V81.45C77.8485 80.8272 78.3329 80.3428 78.9556 80.3428H81.1699C81.7927 80.3428 82.2771 80.8272 82.2771 81.45V83.6643ZM82.2771 74.8071C82.2771 75.4299 81.7927 75.9143 81.1699 75.9143H78.9556C78.3329 75.9143 77.8485 75.4299 77.8485 74.8071V72.5928C77.8485 71.9701 78.3329 71.4857 78.9556 71.4857H81.1699C81.7927 71.4857 82.2771 71.9701 82.2771 72.5928V74.8071ZM82.2771 65.95C82.2771 66.5728 81.7927 67.0571 81.1699 67.0571H78.9556C78.3329 67.0571 77.8485 66.5728 77.8485 65.95V63.7357C77.8485 63.1129 78.3329 62.6286 78.9556 62.6286H81.1699C81.7927 62.6286 82.2771 63.1129 82.2771 63.7357V65.95ZM82.2771 57.0928C82.2771 57.7156 81.7927 58.2 81.1699 58.2H78.9556C78.3329 58.2 77.8485 57.7156 77.8485 57.0928V54.8786C77.8485 54.2558 78.3329 53.7714 78.9556 53.7714H81.1699C81.7927 53.7714 82.2771 54.2558 82.2771 54.8786V57.0928ZM82.2771 48.2357C82.2771 48.8585 81.7927 49.3428 81.1699 49.3428H78.9556C78.3329 49.3428 77.8485 48.8585 77.8485 48.2357V46.0214C77.8485 45.3987 78.3329 44.9143 78.9556 44.9143H81.1699C81.7927 44.9143 82.2771 45.3987 82.2771 46.0214V48.2357Z" fill="#151439" fill-opacity="0.4"/>
</g>
</g>
</g>
</svg>
