<svg width="130" height="130" viewBox="0 0 130 130" fill="none" xmlns="http://www.w3.org/2000/svg">
<g id="Group 1">
<path id="Placeholder" fill-rule="evenodd" clip-rule="evenodd" d="M65 130C100.899 130 130 100.899 130 65C130 29.1015 100.899 0 65 0C29.1015 0 0 29.1015 0 65C0 100.899 29.1015 130 65 130Z" fill="#EBEAED"/>
<path id="Vector" d="M80.6194 49.6396C80.3081 49.3282 79.8929 49.1206 79.4431 49.1206C79.3047 49.1206 79.1663 49.1552 79.0279 49.1898L65.327 52.5805L71.2433 36.5615C71.3471 36.3539 71.4163 36.1463 71.4163 35.9387C71.4163 35.143 70.7244 34.4856 69.8594 34.4856H58.5112C57.7846 34.4856 57.1618 34.9354 56.9889 35.5927L50.0346 64.1363C49.9308 64.6206 50.0692 65.1396 50.4844 65.4856C50.7612 65.7278 51.1764 65.8662 51.5569 65.8662C51.6953 65.8662 51.8337 65.8662 51.9721 65.8316L66.019 62.3372L59.2031 90.2925C59.0302 91.0191 59.4799 91.7456 60.2411 91.9878C60.4141 92.0224 60.5871 92.057 60.7255 92.057C61.3482 92.057 61.9018 91.711 62.1786 91.1921L80.8616 51.1619C81.1038 50.643 81 50.0548 80.6194 49.6396Z" fill="#151439" fill-opacity="0.4"/>
</g>
</svg>
