<svg width="130" height="130" viewBox="0 0 130 130" fill="none" xmlns="http://www.w3.org/2000/svg">
<g id="Group 3">
<g id="Group 2">
<path id="Placeholder" fill-rule="evenodd" clip-rule="evenodd" d="M65 130C100.899 130 130 100.899 130 65C130 29.1015 100.899 0 65 0C29.1015 0 0 29.1015 0 65C0 100.899 29.1015 130 65 130Z" fill="#EBEAED"/>
<path id="Vector" d="M65 91.1429C65.5535 91.1429 66.1071 90.9353 66.5223 90.5201L88.077 69.7612C88.3884 69.4498 96 62.4955 96 54.192C96 44.0547 89.8069 38 79.4621 38C73.4074 38 67.7332 42.7746 65 45.4732C62.2667 42.7746 56.5926 38 50.5379 38C40.1931 38 34 44.0547 34 54.192C34 62.4955 41.6116 69.4498 41.8884 69.692L63.4777 90.5201C63.8929 90.9353 64.4464 91.1429 65 91.1429Z" fill="#151439" fill-opacity="0.4"/>
</g>
</g>
</svg>
