<svg width="41" height="41" viewBox="0 0 41 41" fill="none" xmlns="http://www.w3.org/2000/svg">
<path id=" fa-paint-brush" d="M36.5491 0.714233C35.4554 0.714233 34.4286 1.20531 33.6473 1.91959L19.4063 14.8437C18.0893 16.0491 17.3527 17.7901 17.3527 19.5758C17.3527 23.3258 20.433 26.5401 24.2054 26.5401C26.1027 26.5401 27.7098 25.7812 29.0714 24.5089C31.8616 21.9419 37.7098 11.0267 39.4509 7.72316C39.9866 6.67406 40.4554 5.53566 40.4554 4.35263C40.4554 2.23209 38.5804 0.714233 36.5491 0.714233ZM16.2589 23.7946C11.2366 24.0178 8.26786 24.9107 6.37054 29.866C6.16964 30.3794 5.70089 30.6919 5.14286 30.6919C4.20536 30.6919 1.32589 28.3928 0.5 27.8348C0.5 34.6875 3.78125 40.7142 11.3482 40.7142C17.7321 40.7142 22.1518 36.3392 22.0179 29.9776L21.9955 28.3928C19.5402 27.7455 17.4196 26.0491 16.2589 23.7946Z" fill="#482BE7"/>
</svg>
