<svg width="14" height="12" viewBox="0 0 14 12" fill="none" xmlns="http://www.w3.org/2000/svg">
<path id="fa-reorder" d="M13.9955 10.2857C13.9955 9.9732 13.7366 9.71427 13.4241 9.71427H0.852679C0.540179 9.71427 0.28125 9.9732 0.28125 10.2857V11.4286C0.28125 11.7411 0.540179 12 0.852679 12H13.4241C13.7366 12 13.9955 11.7411 13.9955 11.4286V10.2857ZM13.9955 5.71427C13.9955 5.40177 13.7366 5.14284 13.4241 5.14284H0.852679C0.540179 5.14284 0.28125 5.40177 0.28125 5.71427V6.85713C0.28125 7.16963 0.540179 7.42855 0.852679 7.42855H13.4241C13.7366 7.42855 13.9955 7.16963 13.9955 6.85713V5.71427ZM13.9955 1.14284C13.9955 0.830339 13.7366 0.571411 13.4241 0.571411H0.852679C0.540179 0.571411 0.28125 0.830339 0.28125 1.14284V2.2857C0.28125 2.5982 0.540179 2.85713 0.852679 2.85713H13.4241C13.7366 2.85713 13.9955 2.5982 13.9955 2.2857V1.14284Z" fill="white"/>
</svg>
