<svg width="15" height="16" viewBox="0 0 15 16" fill="none" xmlns="http://www.w3.org/2000/svg">
<path id="fa-search" d="M10.2857 6.71427C10.2857 8.91963 8.49107 10.7143 6.28571 10.7143C4.08036 10.7143 2.28571 8.91963 2.28571 6.71427C2.28571 4.50892 4.08036 2.71427 6.28571 2.71427C8.49107 2.71427 10.2857 4.50892 10.2857 6.71427ZM14.8571 14.1428C14.8571 13.8393 14.7321 13.5446 14.5268 13.3393L11.4643 10.2768C12.1875 9.23213 12.5714 7.98213 12.5714 6.71427C12.5714 3.24106 9.75893 0.428558 6.28571 0.428558C2.8125 0.428558 0 3.24106 0 6.71427C0 10.1875 2.8125 13 6.28571 13C7.55357 13 8.80357 12.6161 9.84822 11.8928L12.9107 14.9464C13.1161 15.1607 13.4107 15.2857 13.7143 15.2857C14.3393 15.2857 14.8571 14.7678 14.8571 14.1428Z" fill="#1E0E62"/>
</svg>
