<svg width="15" height="16" viewBox="0 0 15 16" fill="none" xmlns="http://www.w3.org/2000/svg">
<path id="fa-search" d="M10.2857 6.7143C10.2857 8.91966 8.49107 10.7143 6.28571 10.7143C4.08036 10.7143 2.28571 8.91966 2.28571 6.7143C2.28571 4.50895 4.08036 2.7143 6.28571 2.7143C8.49107 2.7143 10.2857 4.50895 10.2857 6.7143ZM14.8571 14.1429C14.8571 13.8393 14.7321 13.5447 14.5268 13.3393L11.4643 10.2768C12.1875 9.23216 12.5714 7.98216 12.5714 6.7143C12.5714 3.24109 9.75893 0.428589 6.28571 0.428589C2.8125 0.428589 0 3.24109 0 6.7143C0 10.1875 2.8125 13 6.28571 13C7.55357 13 8.80357 12.6161 9.84822 11.8929L12.9107 14.9464C13.1161 15.1607 13.4107 15.2857 13.7143 15.2857C14.3393 15.2857 14.8571 14.7679 14.8571 14.1429Z" fill="white"/>
</svg>
