<svg width="17" height="13" viewBox="0 0 17 13" fill="none" xmlns="http://www.w3.org/2000/svg">
<path id="fa-twitter" d="M16.2723 1.66961C15.6897 1.92072 15.0569 2.10153 14.4039 2.17184C15.0769 1.77005 15.5892 1.13724 15.8303 0.383894C15.2075 0.755545 14.5044 1.02675 13.7711 1.16738C13.1785 0.534563 12.3348 0.142822 11.4006 0.142822C9.60261 0.142822 8.15618 1.5993 8.15618 3.38724C8.15618 3.63836 8.18631 3.88947 8.23654 4.13055C5.54457 3.98992 3.1439 2.70421 1.54681 0.735456C1.26556 1.2176 1.10484 1.77005 1.10484 2.37273C1.10484 3.49773 1.67739 4.49215 2.55127 5.07474C2.0189 5.05465 1.51667 4.90398 1.08475 4.66291C1.08475 4.67296 1.08475 4.69305 1.08475 4.70309C1.08475 6.2801 2.19971 7.5859 3.68631 7.88724C3.41511 7.95755 3.12381 7.99773 2.83252 7.99773C2.62158 7.99773 2.42069 7.97764 2.2198 7.94751C2.63163 9.23322 3.82694 10.1674 5.25328 10.1975C4.13832 11.0714 2.74212 11.5837 1.22538 11.5837C0.954171 11.5837 0.703055 11.5736 0.441895 11.5435C1.87828 12.4676 3.58587 13 5.42404 13C11.3906 13 14.6551 8.058 14.6551 3.76894C14.6551 3.62831 14.6551 3.48769 14.645 3.34706C15.2778 2.88501 15.8303 2.31247 16.2723 1.66961Z" fill="white"/>
</svg>
