<svg width="105" height="65" viewBox="0 0 105 65" fill="none" xmlns="http://www.w3.org/2000/svg">
<g id="shipping-delivery" opacity="0.5" clip-path="url(#clip0_6448_1199)">
<g id="2.E commerce">
<g id="E commerce (Stroke)">
<g id="47 e commerce shipping delivery time">
<path id="Rectangle" d="M72.3178 1.38293H30.596C28.6758 1.38293 27.1191 2.93089 27.1191 4.84038V39.4148C27.1191 41.3243 28.6758 42.8723 30.596 42.8723H72.3178C74.238 42.8723 75.7946 41.3243 75.7946 39.4148V4.84038C75.7946 2.93089 74.238 1.38293 72.3178 1.38293Z" stroke="#1E0E62" stroke-width="2"/>
<path id="Layer 2" fill-rule="evenodd" clip-rule="evenodd" d="M96.6558 56.7035H101.519C102.676 56.7035 103.609 55.7776 103.609 54.6354V41.4843C103.609 40.3457 103.022 38.6951 102.298 37.8054L90.847 23.7398C90.1224 22.8498 88.6013 22.129 87.4487 22.129H75.7949V56.7035H82.7486C82.7486 52.8845 85.8618 49.7886 89.7022 49.7886C93.5426 49.7886 96.6558 52.8845 96.6558 56.7035Z" stroke="#1E0E62" stroke-width="2" stroke-linecap="round" stroke-linejoin="round"/>
<path id="Layer 3" fill-rule="evenodd" clip-rule="evenodd" d="M82.748 31.1208C82.748 29.973 83.6868 29.0425 84.8353 29.0425H94.9706L103.609 39.3216V41.4596H84.8341C83.682 41.4596 82.748 40.5263 82.748 39.3812V31.1208Z" stroke="#1E0E62" stroke-width="2" stroke-linecap="round" stroke-linejoin="round"/>
<path id="Layer 4" fill-rule="evenodd" clip-rule="evenodd" d="M34.7681 56.701H31.2902C28.9826 56.701 27.1191 54.8433 27.1191 52.5516V42.8712H75.7946V56.701H48.6754C48.6754 52.882 45.5622 49.7861 41.7218 49.7861C37.8814 49.7861 34.7681 52.882 34.7681 56.701Z" stroke="#1E0E62" stroke-width="2" stroke-linecap="round" stroke-linejoin="round"/>
<path id="Layer 5" d="M41.7212 63.6151C45.5616 63.6151 48.6749 60.5192 48.6749 56.7002C48.6749 52.8812 45.5616 49.7853 41.7212 49.7853C37.8808 49.7853 34.7676 52.8812 34.7676 56.7002C34.7676 60.5192 37.8808 63.6151 41.7212 63.6151Z" stroke="#1E0E62" stroke-width="2" stroke-linecap="round" stroke-linejoin="round"/>
<path id="Layer 6" d="M89.7017 63.6151C93.5421 63.6151 96.6553 60.5192 96.6553 56.7002C96.6553 52.8812 93.5421 49.7853 89.7017 49.7853C85.8613 49.7853 82.748 52.8812 82.748 56.7002C82.748 60.5192 85.8613 63.6151 89.7017 63.6151Z" stroke="#1E0E62" stroke-width="2" stroke-linecap="round" stroke-linejoin="round"/>
<path id="Line" d="M7.99707 12.1011H22.9983" stroke="#1E0E62" stroke-width="2" stroke-linecap="round"/>
<path id="Line_2" d="M7.99609 29.3868H22.9974" stroke="#1E0E62" stroke-width="2" stroke-linecap="round"/>
<path id="Line_3" d="M1.62695 22.4734H22.9979" stroke="#1E0E62" stroke-width="2" stroke-linecap="round"/>
</g>
</g>
</g>
</g>
<defs>
<clipPath id="clip0_6448_1199">
<rect width="105" height="65" fill="white"/>
</clipPath>
</defs>
</svg>
